<?xml version="1.0" standalone="no"?>
<!DOCTYPE svg PUBLIC "-//W3C//DTD SVG 20010904//EN"
 "http://www.w3.org/TR/2001/REC-SVG-20010904/DTD/svg10.dtd">
<svg version="1.0" xmlns="http://www.w3.org/2000/svg"
 width="700.000000pt" height="700.000000pt" viewBox="0 0 700.000000 700.000000"
 preserveAspectRatio="xMidYMid meet">
<metadata>
Created by potrace 1.14, written by Peter Selinger 2001-2017
</metadata>
<g transform="translate(0.000000,700.000000) scale(0.100000,-0.100000)"
fill="#000000" stroke="none">
<path d="M5759 6977 c-152 -52 -259 -171 -289 -324 -16 -82 -8 -454 11 -503
89 -227 316 -340 541 -270 152 47 270 184 293 341 9 59 9 343 0 410 -15 114
-102 247 -200 304 -108 64 -244 79 -356 42z m216 -291 c50 -33 59 -67 60 -246
1 -91 -3 -178 -8 -195 -30 -93 -139 -129 -220 -73 -54 38 -61 66 -61 259 0
175 0 177 26 217 45 67 134 83 203 38z"/>
<path d="M6797 6986 c-39 -21 -341 -325 -359 -361 -16 -33 -16 -92 1 -124 19
-34 76 -71 117 -75 46 -4 103 22 133 60 12 15 21 23 22 18 1 -5 2 -128 3 -274
2 -294 5 -311 69 -351 45 -28 127 -22 163 12 54 50 53 42 54 535 0 419 -1 462
-17 493 -10 19 -29 43 -43 53 -35 25 -108 33 -143 14z"/>
<path d="M3135 6718 c-515 -44 -943 -327 -1168 -773 -65 -129 -115 -287 -134
-425 -16 -117 -6 -420 18 -545 5 -27 12 -63 15 -80 21 -129 105 -399 149 -484
15 -30 15 -30 -22 -47 -53 -25 -164 -140 -191 -199 l-23 -50 -762 0 -762 0
-59 -27 c-70 -34 -130 -94 -165 -168 l-26 -55 0 -1162 0 -1162 21 -28 c12 -15
35 -36 53 -46 29 -17 61 -19 451 -19 l420 -1 0 -143 c0 -108 -3 -144 -12 -145
-7 0 -40 -1 -73 -3 -104 -4 -154 -48 -160 -136 -3 -37 2 -55 21 -84 43 -63 61
-66 385 -66 l289 0 0 -290 c0 -159 -3 -290 -7 -291 -5 -1 -193 -2 -420 -2
-399 -2 -412 -3 -439 -23 -47 -34 -66 -68 -66 -116 -1 -50 25 -103 64 -128 20
-13 369 -15 2953 -18 2714 -2 2933 -1 2967 14 117 52 103 227 -20 261 -23 7
-189 10 -431 9 -254 -1 -395 3 -397 9 -2 6 -5 249 -7 540 -2 292 -7 544 -10
560 -52 214 -184 394 -352 477 -27 14 -90 42 -140 63 -49 20 -103 43 -120 50
-16 7 -113 48 -214 89 -100 42 -197 83 -215 90 -17 8 -87 38 -156 66 -69 28
-134 59 -145 70 -23 23 -32 93 -27 210 l4 75 111 63 c282 158 304 173 370 239
96 97 159 209 198 348 22 80 27 121 28 216 l1 65 49 22 c238 108 335 397 214
636 -36 72 -135 166 -205 196 l-58 25 0 46 c0 25 4 49 9 55 15 16 92 245 116
349 28 117 32 141 41 215 3 30 8 64 10 75 6 29 5 294 -1 335 -25 168 -71 322
-130 440 -33 66 -101 179 -114 190 -3 3 -19 22 -34 43 -43 57 -156 168 -217
213 -164 121 -340 171 -499 142 -48 -8 -54 -7 -94 20 -233 159 -541 229 -882
200z m-1720 -5311 c-4 -23 -10 -89 -14 -147 l-6 -104 -70 1 c-38 1 -75 2 -80
2 -8 1 -13 221 -6 278 1 8 30 12 92 12 l91 0 -7 -42z"/>
<path d="M375 6105 c-46 -24 -344 -325 -361 -365 -34 -79 10 -167 95 -190 50
-13 98 2 144 45 l37 35 0 -268 c0 -234 2 -271 18 -302 49 -99 188 -107 249
-13 17 25 18 62 19 488 1 472 -1 501 -38 539 -40 40 -117 54 -163 31z"/>
<path d="M1010 6103 c-163 -42 -289 -178 -317 -343 -9 -54 -9 -327 0 -405 28
-244 257 -413 502 -368 137 25 244 105 305 228 41 83 48 133 49 336 0 252 -23
330 -129 438 -109 112 -258 153 -410 114z m178 -290 c67 -43 74 -69 74 -263 0
-187 -8 -222 -63 -261 -46 -33 -125 -32 -167 2 -56 45 -62 71 -59 267 2 152 5
182 20 205 41 63 137 87 195 50z"/>
<path d="M5737 3984 c-73 -20 -96 -32 -148 -81 -55 -52 -87 -110 -98 -182 -3
-25 -6 -431 -5 -901 1 -762 3 -860 18 -899 32 -85 97 -154 182 -192 48 -22 59
-22 534 -24 267 0 503 3 525 7 93 20 179 89 223 177 l27 56 0 905 0 905 -29
58 c-45 87 -126 152 -216 172 -57 13 -963 12 -1013 -1z"/>
<path d="M109 280 c-71 -21 -115 -82 -105 -148 3 -20 5 -40 6 -44 0 -3 12 -20
26 -37 29 -35 91 -56 139 -47 40 8 89 52 103 93 35 104 -66 214 -169 183z"/>
<path d="M6815 279 c-86 -26 -125 -120 -84 -201 23 -45 51 -65 102 -73 107
-17 190 79 156 182 -23 72 -102 114 -174 92z"/>
</g>
</svg>
